<?xml version="1.0" standalone="no"?>
<!DOCTYPE svg PUBLIC "-//W3C//DTD SVG 20010904//EN"
 "http://www.w3.org/TR/2001/REC-SVG-20010904/DTD/svg10.dtd">
<svg version="1.0" xmlns="http://www.w3.org/2000/svg"
 width="2000.000000pt" height="2000.000000pt" viewBox="0 0 2000.000000 2000.000000"
 preserveAspectRatio="xMidYMid meet">
<metadata>
Created by potrace 1.14, written by Peter Selinger 2001-2017
</metadata>
<g transform="translate(0.000000,2000.000000) scale(0.100000,-0.100000)"
fill="#000000" stroke="none">
<path d="M6688 19995 c-2 -1 -277 -6 -613 -10 -335 -3 -680 -8 -765 -10 -266
-6 -631 -16 -730 -20 -181 -7 -365 -16 -410 -20 -25 -2 -84 -6 -132 -10 -49
-3 -96 -8 -105 -9 -19 -4 -97 -15 -148 -21 -81 -11 -120 -17 -240 -41 -71 -14
-141 -28 -155 -30 -167 -32 -570 -158 -735 -230 -22 -9 -49 -20 -60 -25 -45
-18 -294 -141 -355 -175 -214 -121 -512 -332 -690 -489 -107 -94 -242 -219
-294 -271 -403 -409 -681 -842 -880 -1374 -44 -117 -131 -388 -128 -397 0 -2
-8 -33 -18 -70 -10 -38 -21 -79 -24 -93 -3 -14 -16 -77 -30 -140 -14 -63 -27
-131 -31 -150 -3 -19 -7 -46 -10 -60 -3 -14 -7 -41 -10 -60 -3 -19 -7 -46 -10
-60 -2 -14 -7 -45 -10 -70 -4 -25 -8 -56 -10 -70 -12 -82 -15 -111 -21 -168
-3 -35 -7 -71 -9 -80 -1 -9 -6 -60 -10 -112 -4 -52 -8 -111 -10 -130 -4 -39
-15 -208 -20 -315 -12 -234 -19 -640 -17 -1125 1 -305 3 -2546 6 -4980 3
-2434 7 -4456 9 -4495 3 -38 8 -126 11 -195 7 -126 12 -193 21 -285 3 -27 7
-75 10 -105 70 -749 245 -1352 539 -1852 370 -629 844 -1145 1361 -1480 134
-88 331 -195 440 -240 22 -9 69 -29 105 -43 36 -15 83 -35 105 -45 208 -92
641 -231 825 -264 14 -2 82 -16 152 -30 215 -43 237 -46 478 -61 174 -10 373
-21 585 -30 223 -10 351 -15 825 -30 651 -21 2688 -27 3870 -11 333 4 706 9
830 11 124 2 484 7 800 11 789 11 2910 11 3380 0 472 -11 518 -11 650 -2 58 4
134 9 170 11 36 2 97 7 135 10 39 3 111 7 160 10 50 3 114 8 142 10 29 3 92 8
140 10 49 3 115 7 148 10 33 2 98 7 145 10 120 8 192 14 215 19 11 2 43 7 70
10 28 4 57 9 65 11 8 2 33 6 55 10 164 24 605 155 830 247 276 113 530 243
717 369 64 44 211 160 216 171 2 4 29 21 60 38 97 52 191 129 342 280 163 162
181 182 298 328 242 300 478 673 608 962 65 145 68 154 102 250 39 113 60 198
78 319 4 25 18 63 31 85 51 80 111 330 138 571 3 28 7 66 10 85 2 19 7 62 10
95 3 33 7 80 10 105 4 45 14 165 20 250 2 25 6 95 9 155 4 61 9 146 12 190 5
82 9 168 19 450 35 943 38 2386 9 4555 -4 256 -7 1644 -9 3085 -1 1441 -5
2656 -8 2700 -3 44 -9 132 -12 195 -4 63 -8 129 -11 145 -2 17 -6 61 -9 98 -3
37 -7 82 -10 100 -2 18 -7 57 -10 87 -5 51 -48 334 -60 390 -19 93 -26 128
-29 147 -3 12 -21 84 -41 160 -94 357 -240 710 -433 1048 -68 119 -180 299
-209 335 -6 8 -46 62 -89 120 -42 58 -80 107 -83 110 -4 3 -26 30 -51 60 -129
157 -322 348 -511 505 -99 83 -399 295 -449 318 -8 4 -33 18 -55 32 -156 97
-453 236 -700 329 -371 138 -867 253 -1300 301 -27 3 -66 8 -85 10 -52 8 -121
14 -229 21 -53 3 -112 8 -131 9 -100 9 -718 16 -1800 21 -1350 6 -6957 14
-6962 9z"/>
</g>
</svg>
